<svg width="32" height="32" viewBox="0 0 32 32" fill="none" xmlns="http://www.w3.org/2000/svg">
  <rect width="32" height="32" rx="8" fill="#0070F3"/>
  <path d="M16 8C11.0294 8 7 12.0294 7 17C7 21.9706 11.0294 26 16 26C20.9706 26 25 21.9706 25 17C25 12.0294 20.9706 8 16 8ZM16 24C12.134 24 9 20.866 9 17C9 13.134 12.134 10 16 10C19.866 10 23 13.134 23 17C23 20.866 19.866 24 16 24Z" fill="white"/>
  <circle cx="16" cy="17" r="4" fill="white"/>
  <path d="M16 11C12.6863 11 10 13.6863 10 17C10 20.3137 12.6863 23 16 23C19.3137 23 22 20.3137 22 17" stroke="white" stroke-width="2" stroke-linecap="round"/>
</svg> 